<?xml version="1.0" encoding="UTF-8"?> <svg xmlns="http://www.w3.org/2000/svg" width="176" height="34" viewBox="0 0 176 34" fill="none"><g opacity="0.7"><path d="M67.99 2.84229L77.3457 8.14925L67.99 13.4166V2.84229Z" fill="white"></path><path d="M22.8649 0.386719C23.1472 0.386719 23.3892 0.465927 23.5908 0.663948C23.7924 0.861969 23.9134 1.09959 23.9134 1.41643V23.4364C23.9134 23.7136 23.7924 23.9512 23.5908 24.1492C23.3892 24.3473 23.1472 24.4661 22.8649 24.4661H22.8246C22.5423 24.4661 22.3004 24.3473 22.0987 24.1492C21.8971 23.9512 21.7761 23.7136 21.7761 23.4364V1.41643C21.7761 1.1392 21.8971 0.901573 22.0987 0.663948C22.3004 0.465927 22.5423 0.386719 22.8246 0.386719H22.8649Z" fill="white"></path><path d="M14.961 9.7334C16.6547 11.3968 17.5419 13.4562 17.5419 15.8324V23.3968C17.5419 23.6741 17.4209 23.9117 17.2193 24.1097C17.0177 24.3077 16.7757 24.4266 16.4934 24.4266H16.4531C16.1708 24.4266 15.9289 24.3077 15.7272 24.1097C15.5256 23.9117 15.4046 23.6741 15.4046 23.3968V21.4958C13.1867 23.4365 10.9687 24.387 8.75079 24.387C6.33121 24.387 4.27458 23.5553 2.54055 21.8523C0.846851 20.2285 0 18.2087 0 15.8324C0 13.4562 0.84685 11.4364 2.58088 9.7334C4.27458 8.07002 6.37154 7.19873 8.79111 7.19873C11.1704 7.23833 13.227 8.07002 14.961 9.7334ZM4.07295 11.2384C2.78251 12.5057 2.13729 14.0503 2.13729 15.8324C2.13729 17.6146 2.78251 19.1592 4.07295 20.4661C5.36339 21.7335 6.93611 22.3671 8.79111 22.3671C10.6058 22.3671 12.1785 21.7335 13.469 20.4661C14.7594 19.1988 15.4046 17.6542 15.4046 15.8324C15.4046 14.0503 14.7594 12.5057 13.469 11.2384C12.1785 9.97102 10.6461 9.33736 8.79111 9.33736C6.93611 9.29775 5.36339 9.93142 4.07295 11.2384Z" fill="white"></path><path d="M88.9596 0.386719C89.2419 0.386719 89.4839 0.465927 89.7258 0.663948C89.9274 0.861969 90.0081 1.09959 90.0081 1.41643V1.45603C90.0081 1.73326 89.9274 1.97089 89.7258 2.20851C89.5242 2.40653 89.2822 2.48574 88.9596 2.48574H87.9918C86.782 2.48574 85.7738 2.92139 84.927 3.75308C84.0801 4.58476 83.6769 5.57487 83.6366 6.76299V7.27785H88.9596C89.2419 7.27785 89.4839 7.39666 89.7258 7.59468C89.9274 7.7927 90.0081 8.03033 90.0081 8.30756V8.34716C90.0081 8.62439 89.9274 8.86202 89.7258 9.09964C89.5242 9.29766 89.2822 9.41648 88.9596 9.41648H83.6366V23.5156C83.6366 23.7928 83.5156 24.0304 83.3139 24.2284C83.1123 24.4265 82.8704 24.5453 82.5881 24.5453H82.5477C82.2655 24.5453 82.0235 24.4265 81.8219 24.2284C81.6202 24.0304 81.4993 23.7928 81.4993 23.5156V6.72339C81.5396 4.9412 82.1445 3.47585 83.3946 2.24812C84.685 1.02039 86.1771 0.386719 87.9918 0.386719H88.9596Z" fill="white"></path><path d="M95.4521 3.04025C95.0489 3.04025 94.7263 2.92144 94.4843 2.64421C94.2424 2.40659 94.0811 2.08975 94.0811 1.69371C94.0811 1.33727 94.202 1.02044 94.4843 0.74321C94.7263 0.505585 95.0489 0.347168 95.4521 0.347168C95.8151 0.347168 96.1377 0.465981 96.42 0.74321C96.7023 1.02044 96.8232 1.33727 96.8232 1.69371C96.8232 2.05015 96.7023 2.36698 96.42 2.64421C96.1377 2.92144 95.8554 3.04025 95.4521 3.04025ZM95.4925 7.2383C95.7748 7.2383 96.0167 7.35711 96.2183 7.55513C96.42 7.75315 96.541 7.99078 96.541 8.30761V23.476C96.541 23.7532 96.42 23.9909 96.2183 24.1889C96.0167 24.3869 95.7748 24.5057 95.4925 24.5057H95.4521C95.1699 24.5057 94.9279 24.3869 94.7263 24.1889C94.5246 23.9909 94.4037 23.7532 94.4037 23.476V8.26801C94.4037 7.99078 94.5246 7.75315 94.7263 7.51553C94.8876 7.31751 95.1699 7.2383 95.4925 7.2383Z" fill="white"></path><path d="M115.736 9.73351C117.43 11.3969 118.317 13.4563 118.317 15.8326V23.397C118.317 23.6742 118.196 23.9118 117.994 24.1098C117.793 24.3079 117.551 24.4267 117.269 24.4267H117.228C116.946 24.4267 116.704 24.3079 116.502 24.1098C116.301 23.9118 116.18 23.6742 116.18 23.397V21.496C113.962 23.4366 111.744 24.3871 109.526 24.3871C107.106 24.3871 105.05 23.5554 103.316 21.8524C101.622 20.189 100.735 18.1296 100.735 15.7533C100.735 13.3771 101.582 11.3573 103.316 9.6543C105.009 7.99092 107.106 7.11963 109.526 7.11963C111.946 7.23844 114.043 8.07013 115.736 9.73351ZM104.848 11.2385C103.558 12.5058 102.912 14.0504 102.912 15.8326C102.912 17.6147 103.558 19.1593 104.848 20.4662C106.139 21.7336 107.711 22.3672 109.566 22.3672C111.381 22.3672 112.954 21.7336 114.244 20.4662C115.535 19.1989 116.18 17.6543 116.18 15.8326C116.18 14.0504 115.535 12.5058 114.244 11.2385C112.954 9.97113 111.421 9.33746 109.566 9.33746C107.711 9.29786 106.139 9.93153 104.848 11.2385Z" fill="white"></path><path d="M124.689 23.3968C124.689 23.674 124.568 23.9117 124.366 24.1097C124.164 24.3077 123.922 24.4265 123.64 24.4265H123.6C123.317 24.4265 123.076 24.3077 122.874 24.1097C122.672 23.9117 122.551 23.674 122.551 23.3968V14.2878C122.551 12.3472 123.237 10.6838 124.648 9.2977C126.06 7.91155 127.753 7.23828 129.729 7.23828C131.705 7.23828 133.399 7.91155 134.81 9.2977C136.222 10.6838 136.907 12.3472 136.907 14.2878V23.3968C136.907 23.674 136.786 23.9117 136.585 24.1097C136.383 24.3077 136.141 24.4265 135.859 24.4265H135.819C135.536 24.4265 135.294 24.3077 135.052 24.1097C134.851 23.9117 134.73 23.674 134.73 23.3968V14.2878C134.73 12.9017 134.246 11.7532 133.238 10.7631C132.23 9.77295 131.06 9.2977 129.649 9.2977C128.237 9.2977 127.068 9.77295 126.06 10.7631C125.092 11.7532 124.568 12.9017 124.568 14.2878V23.3968H124.689Z" fill="white"></path><path d="M152.594 7.63448C153.078 7.7929 153.32 8.10973 153.32 8.58498V8.7038C153.32 9.06023 153.199 9.33746 152.917 9.53549C152.635 9.73351 152.312 9.81271 151.989 9.6939C151.344 9.45628 150.659 9.37707 149.973 9.37707C148.158 9.37707 146.586 10.0107 145.255 11.2781C143.965 12.5454 143.319 14.09 143.319 15.9118C143.319 17.694 143.965 19.2385 145.255 20.5058C146.545 21.7732 148.118 22.4068 149.973 22.4068C150.659 22.4068 151.344 22.288 151.989 22.09C152.312 21.9712 152.635 22.0108 152.917 22.2088C153.199 22.4068 153.32 22.6841 153.32 23.0405C153.32 23.5158 153.078 23.8326 152.594 23.991C151.748 24.2682 150.86 24.3871 149.933 24.3871C147.513 24.3871 145.457 23.5554 143.723 21.8524C142.029 20.189 141.142 18.1296 141.142 15.7533C141.142 13.3771 141.989 11.3573 143.723 9.6543C145.416 7.99092 147.513 7.11963 149.933 7.11963C150.86 7.23844 151.748 7.35725 152.594 7.63448Z" fill="white"></path><path d="M166.346 7.23828C168.765 7.23828 170.822 8.06997 172.556 9.77295C174.25 11.4363 175.137 13.4957 175.137 15.872C175.137 18.2482 174.29 20.2681 172.556 21.971C170.862 23.6344 168.765 24.5057 166.346 24.5057C163.926 24.5057 161.869 23.674 160.135 21.971C158.442 20.3077 157.555 18.2482 157.555 15.872C157.555 13.4957 158.401 11.4759 160.135 9.77295C161.869 8.06997 163.926 7.23828 166.346 7.23828ZM166.346 9.3373C164.531 9.3373 162.958 9.97097 161.628 11.2383C160.337 12.5056 159.692 14.0502 159.692 15.872C159.692 17.6542 160.337 19.1987 161.628 20.4661C162.918 21.7334 164.491 22.3671 166.346 22.3671C168.201 22.3671 169.733 21.7334 171.024 20.4661C172.314 19.1987 172.959 17.6542 172.959 15.872C172.959 14.0898 172.314 12.5452 171.024 11.2383C169.773 9.97097 168.201 9.3373 166.346 9.3373Z" fill="white"></path><path d="M29.2365 0.386719C29.5188 0.386719 29.7607 0.465927 29.9623 0.663948C30.164 0.861969 30.285 1.09959 30.285 1.41643V7.23824H33.8337C34.1159 7.23824 34.3579 7.35706 34.5595 7.55508C34.7612 7.7531 34.8821 7.99072 34.8821 8.30756V8.34716C34.8821 8.62439 34.7612 8.86202 34.5595 9.06004C34.3579 9.25806 34.1159 9.37687 33.8337 9.37687H30.285V20.1888C30.285 20.7829 30.4866 21.2977 30.9302 21.6938C31.3738 22.1294 31.898 22.3274 32.5029 22.3274H33.874C34.1563 22.3274 34.3982 22.4463 34.5999 22.6443C34.8015 22.8423 34.9225 23.0799 34.9225 23.3968V23.4364C34.9225 23.7136 34.8015 23.9512 34.5999 24.1492C34.3982 24.3473 34.1563 24.4661 33.874 24.4661H32.5029C31.2931 24.4661 30.285 24.07 29.4381 23.2383C28.5912 22.4066 28.188 21.4165 28.188 20.2284V1.41643C28.188 1.1392 28.309 0.901573 28.5106 0.663948C28.6719 0.465927 28.9139 0.386719 29.1961 0.386719H29.2365Z" fill="white"></path><path d="M41.2537 17.377C41.2537 18.7632 41.7377 19.9117 42.7458 20.9018C43.754 21.8523 44.9234 22.3671 46.3348 22.3671C47.7463 22.3671 48.9157 21.8919 49.9239 20.9018C50.8917 19.9117 51.4159 18.7632 51.4159 17.377V8.26804C51.4159 7.99081 51.5369 7.75319 51.7386 7.51556C51.9402 7.31754 52.1821 7.19873 52.5048 7.19873H52.5451C52.8274 7.19873 53.0693 7.31754 53.271 7.51556C53.4726 7.71358 53.5936 7.95121 53.5936 8.26804V17.377C53.5936 19.3176 52.908 20.981 51.4966 22.3671C50.0852 23.7533 48.3915 24.4266 46.4155 24.4266C44.4395 24.4266 42.7458 23.7533 41.3344 22.3671C39.8423 20.981 39.1165 19.3176 39.1165 17.377V8.26804C39.1165 7.99081 39.2374 7.75319 39.4391 7.51556C39.6407 7.31754 39.8827 7.19873 40.1649 7.19873H40.2053C40.4875 7.19873 40.7295 7.31754 40.9311 7.51556C41.1328 7.71358 41.2537 7.95121 41.2537 8.26804V17.377Z" fill="white"></path><path d="M83.5962 31.3572C83.5558 31.3176 83.5155 31.3176 83.4752 31.278C83.4349 31.2384 83.3542 31.1988 83.2735 31.1592C83.1929 31.1196 83.1122 31.08 82.9913 31.08C82.8703 31.0404 82.7896 31.0404 82.6687 31.0404C82.467 31.0404 82.346 31.08 82.2654 31.1592C82.1847 31.2384 82.1444 31.3176 82.1444 31.4364C82.1444 31.5157 82.1444 31.5553 82.1847 31.5949C82.2251 31.6345 82.2654 31.6741 82.346 31.7137C82.4267 31.7533 82.5074 31.7929 82.588 31.7929C82.6687 31.8325 82.7896 31.8325 82.9509 31.8721C83.1122 31.9117 83.2735 31.9513 83.3945 32.0305C83.5155 32.1097 83.6365 32.1493 83.7575 32.2285C83.8381 32.3077 83.9188 32.3869 83.9994 32.5058C84.0801 32.6246 84.0801 32.7434 84.0801 32.9018C84.0801 33.0998 84.0397 33.2582 83.9591 33.3771C83.8784 33.4959 83.7978 33.6147 83.6768 33.6939C83.5558 33.7731 83.4349 33.8127 83.2735 33.8523C83.1122 33.8919 82.9509 33.8919 82.7896 33.8919C82.5477 33.8919 82.2654 33.8523 82.0234 33.7731C81.7815 33.6939 81.5395 33.5751 81.3379 33.4563L81.6202 32.9018C81.6605 32.9414 81.7008 32.981 81.7815 33.0206C81.8621 33.0602 81.9428 33.0998 82.0638 33.179C82.1847 33.2186 82.2654 33.2582 82.4267 33.2978C82.5477 33.3374 82.6687 33.3374 82.83 33.3374C83.1929 33.3374 83.3945 33.2186 83.3945 32.981C83.3945 32.9018 83.3542 32.8622 83.3139 32.783C83.2735 32.7038 83.1929 32.7038 83.1526 32.6642C83.1122 32.6246 82.9913 32.585 82.8703 32.5454C82.7493 32.5058 82.6283 32.4662 82.5074 32.4266C82.346 32.3869 82.1847 32.3473 82.0638 32.2681C81.9428 32.2285 81.8218 32.1493 81.7412 32.0701C81.6605 31.9909 81.5798 31.9117 81.5395 31.8325C81.4992 31.7533 81.4589 31.6345 81.4589 31.4761C81.4589 31.3176 81.4992 31.1592 81.5395 31.0008C81.5798 30.8424 81.7008 30.7632 81.8218 30.684C81.9428 30.6048 82.0638 30.5255 82.2251 30.4859C82.3864 30.4463 82.5477 30.4067 82.709 30.4067C82.9509 30.4067 83.1929 30.4463 83.3945 30.5255C83.5962 30.6048 83.7978 30.684 83.9188 30.8028L83.5962 31.3572Z" fill="white"></path><path d="M88.637 33.2582V33.8522H86.2174V30.4463H88.5966V31.0404H86.9029V31.872H88.3547V32.4265H86.9029V33.2582H88.637Z" fill="white"></path><path d="M93.6777 33.8522V31.5948L92.7905 33.2582H92.4276L91.5404 31.5948V33.8522H90.8549V30.4463H91.5807L92.5889 32.3869L93.6374 30.4463H94.3632V33.8522H93.6777Z" fill="white"></path><path d="M96.7828 33.8522V30.4463H98.2346C98.3959 30.4463 98.5572 30.4859 98.6781 30.5255C98.7991 30.6047 98.9201 30.6839 99.0411 30.8027C99.1621 30.9215 99.2024 31.0404 99.283 31.1592C99.3234 31.278 99.3637 31.4364 99.3637 31.5552C99.3637 31.7136 99.3234 31.8324 99.283 31.9909C99.2427 32.1097 99.1621 32.2285 99.0814 32.3473C99.0008 32.4661 98.8798 32.5453 98.7588 32.5849C98.6378 32.6641 98.4765 32.6641 98.3152 32.6641H97.5087V33.8126H96.7828V33.8522ZM97.4684 32.1493H98.2346C98.3555 32.1493 98.4765 32.1097 98.5572 31.9909C98.6378 31.872 98.6781 31.7532 98.6781 31.5948C98.6781 31.5156 98.6782 31.4364 98.6378 31.3572C98.5975 31.278 98.5975 31.2384 98.5168 31.1988C98.4765 31.1592 98.4362 31.1196 98.3555 31.08C98.3152 31.0404 98.2346 31.0404 98.1942 31.0404H97.4281V32.1493H97.4684Z" fill="white"></path><path d="M101.541 33.8522V30.4463H102.227V33.2582H104.001V33.8522H101.541Z" fill="white"></path><path d="M106.098 33.8522V30.4463H106.784V33.8522H106.098Z" fill="white"></path><path d="M109.002 32.1098C109.002 31.9118 109.042 31.7137 109.123 31.4761C109.203 31.2781 109.324 31.0801 109.445 30.9216C109.607 30.7632 109.768 30.6444 109.97 30.5256C110.171 30.4068 110.413 30.3672 110.695 30.3672C111.018 30.3672 111.3 30.4464 111.542 30.5652C111.784 30.684 111.946 30.882 112.067 31.1197L111.542 31.4761C111.502 31.3969 111.421 31.3177 111.381 31.2385C111.341 31.1593 111.26 31.1197 111.179 31.0801C111.099 31.0405 111.018 31.0009 110.937 31.0009C110.857 31.0009 110.776 30.9613 110.695 30.9613C110.534 30.9613 110.373 31.0009 110.252 31.0801C110.131 31.1593 110.01 31.2385 109.929 31.3573C109.849 31.4761 109.768 31.5949 109.728 31.7137C109.687 31.8325 109.647 31.991 109.647 32.1098C109.647 32.2682 109.687 32.387 109.728 32.5454C109.768 32.7038 109.849 32.8226 109.929 32.9019C110.01 33.0207 110.131 33.0999 110.252 33.1395C110.373 33.2187 110.534 33.2187 110.655 33.2187C110.736 33.2187 110.816 33.2187 110.897 33.1791C110.978 33.1791 111.058 33.1395 111.139 33.0999C111.22 33.0603 111.3 33.0207 111.341 32.9415C111.421 32.8623 111.462 32.783 111.502 32.7038L112.067 33.0207C112.026 33.1395 111.946 33.2583 111.825 33.3771C111.704 33.4563 111.623 33.5751 111.462 33.6147C111.341 33.6939 111.179 33.7335 111.058 33.7732C110.937 33.8128 110.776 33.8128 110.615 33.8128C110.373 33.8128 110.131 33.7732 109.929 33.6543C109.728 33.5355 109.566 33.4167 109.405 33.2583C109.244 33.0999 109.123 32.9019 109.042 32.7038C109.042 32.5454 109.002 32.3474 109.002 32.1098Z" fill="white"></path><path d="M116.664 33.2582V33.8522H114.244V30.4463H116.623V31.0404H114.93V31.872H116.381V32.4265H114.93V33.2582H116.664Z" fill="white"></path><path d="M121.745 33.8522V31.5948L120.858 33.2582H120.495L119.608 31.5948V33.8522H118.922V30.4463H119.648L120.656 32.3869L121.704 30.4463H122.43V33.8522H121.745Z" fill="white"></path><path d="M127.229 33.2582V33.8522H124.81V30.4463H127.189V31.0404H125.495V31.872H126.947V32.4265H125.495V33.2582H127.229Z" fill="white"></path><path d="M130.133 31.674V33.8522H129.447V30.4463H129.971L131.786 32.6641V30.4463H132.472V33.8522H131.907L130.133 31.674Z" fill="white"></path><path d="M137.512 31.0404H136.424V33.8522H135.738V31.0404H134.649V30.4463H137.553V31.0404H137.512Z" fill="white"></path><path d="M142.029 33.2582V33.8522H139.609V30.4463H141.989V31.0404H140.295V31.872H141.747V32.4265H140.295V33.2582H142.029Z" fill="white"></path><path d="M147.15 33.8522V30.4463H149.489V31.0404H147.836V31.9116H149.207V32.4661H147.836V33.8918H147.15V33.8522Z" fill="white"></path><path d="M153.119 33.2982C153.28 33.2982 153.401 33.2586 153.522 33.219C153.643 33.1794 153.724 33.0606 153.804 32.9814C153.885 32.8626 153.925 32.7438 153.965 32.625C154.006 32.5062 154.006 32.3477 154.006 32.2289V30.4863H154.691V32.2289C154.691 32.4665 154.651 32.6646 154.611 32.9022C154.57 33.1002 154.449 33.2982 154.328 33.4567C154.207 33.6151 154.046 33.7339 153.845 33.8131C153.643 33.8923 153.441 33.9319 153.159 33.9319C152.877 33.9319 152.635 33.8923 152.473 33.7735C152.272 33.6943 152.11 33.5359 151.989 33.4171C151.868 33.2586 151.788 33.1002 151.748 32.8626C151.707 32.6646 151.667 32.4269 151.667 32.2289V30.4863H152.352V32.2289C152.352 32.3873 152.352 32.5062 152.393 32.625C152.433 32.7438 152.473 32.8626 152.554 32.9814C152.635 33.1002 152.715 33.1794 152.796 33.219C152.836 33.2586 152.998 33.2982 153.119 33.2982Z" fill="white"></path><path d="M159.651 31.0404H158.563V33.8522H157.877V31.0404H156.788V30.4463H159.692V31.0404H159.651Z" fill="white"></path><path d="M163.24 33.2982C163.402 33.2982 163.523 33.2586 163.644 33.219C163.765 33.1794 163.845 33.0606 163.926 32.9814C164.007 32.8626 164.047 32.7438 164.087 32.625C164.128 32.5062 164.128 32.3477 164.128 32.2289V30.4863H164.813V32.2289C164.813 32.4665 164.773 32.6646 164.733 32.9022C164.692 33.1002 164.571 33.2982 164.45 33.4567C164.329 33.6151 164.168 33.7339 163.966 33.8131C163.765 33.8923 163.563 33.9319 163.281 33.9319C162.998 33.9319 162.757 33.8923 162.595 33.7735C162.394 33.6943 162.232 33.5359 162.111 33.4171C161.99 33.2586 161.91 33.1002 161.869 32.8626C161.829 32.6646 161.789 32.4269 161.789 32.2289V30.4863H162.474V32.2289C162.474 32.3873 162.474 32.5062 162.515 32.625C162.555 32.7438 162.595 32.8626 162.676 32.9814C162.757 33.1002 162.837 33.1794 162.918 33.219C162.958 33.2586 163.079 33.2982 163.24 33.2982Z" fill="white"></path><path d="M167.152 33.8522V30.4463H168.684C168.846 30.4463 169.007 30.4859 169.128 30.5255C169.249 30.6047 169.37 30.6839 169.491 30.8027C169.612 30.9215 169.652 31.0404 169.733 31.1592C169.773 31.278 169.814 31.4364 169.814 31.5552C169.814 31.7928 169.773 31.9909 169.652 32.1493C169.531 32.3473 169.37 32.4661 169.209 32.5453L170.015 33.8126H169.249L168.523 32.6641H167.878V33.8126H167.152V33.8522ZM167.797 32.1493H168.644C168.725 32.1493 168.765 32.1493 168.805 32.1097C168.846 32.0701 168.886 32.0305 168.926 31.9909C168.967 31.9512 169.007 31.872 169.007 31.8324C169.047 31.7532 169.047 31.674 169.047 31.6344C169.047 31.5552 169.047 31.476 169.007 31.3968C168.967 31.3176 168.926 31.278 168.886 31.2384C168.846 31.1988 168.805 31.1592 168.725 31.1196C168.684 31.08 168.604 31.08 168.564 31.08H167.757V32.1493H167.797Z" fill="white"></path><path d="M173.564 33.8919C173.322 33.8919 173.08 33.8523 172.878 33.7335C172.677 33.6147 172.475 33.4959 172.354 33.3375C172.193 33.179 172.072 32.981 171.991 32.783C171.911 32.585 171.87 32.3473 171.87 32.1493C171.87 31.9117 171.911 31.7137 171.991 31.5157C172.072 31.3176 172.193 31.1196 172.354 30.9612C172.515 30.8028 172.677 30.684 172.878 30.5652C173.08 30.4859 173.322 30.4067 173.564 30.4067C173.806 30.4067 174.048 30.4463 174.249 30.5652C174.451 30.684 174.653 30.8028 174.774 30.9612C174.935 31.1196 175.016 31.3176 175.096 31.5157C175.177 31.7137 175.217 31.9513 175.217 32.1493C175.217 32.3869 175.177 32.585 175.096 32.783C175.016 32.981 174.895 33.179 174.733 33.3375C174.572 33.4959 174.411 33.6147 174.209 33.7335C174.048 33.8127 173.806 33.8919 173.564 33.8919ZM172.556 32.1493C172.556 32.3077 172.596 32.4266 172.636 32.585C172.677 32.7434 172.757 32.8622 172.838 32.9414C172.919 33.0206 173.04 33.1394 173.161 33.179C173.282 33.2186 173.443 33.2582 173.604 33.2582C173.766 33.2582 173.927 33.2186 174.048 33.179C174.169 33.0998 174.29 33.0206 174.37 32.9018C174.451 32.783 174.532 32.6642 174.572 32.5454C174.612 32.4266 174.653 32.2681 174.653 32.1493C174.653 31.9909 174.612 31.8721 174.572 31.7137C174.532 31.5949 174.451 31.4364 174.37 31.3572C174.29 31.2384 174.169 31.1592 174.048 31.1196C173.927 31.0404 173.766 31.0404 173.645 31.0404C173.483 31.0404 173.322 31.08 173.201 31.1196C173.08 31.1988 172.959 31.278 172.878 31.3968C172.798 31.5157 172.717 31.6345 172.677 31.7533C172.596 31.8721 172.556 31.9909 172.556 32.1493Z" fill="white"></path><path d="M75.4907 15.8324C75.4907 18.2086 74.6438 20.2285 72.9098 21.9314C71.2161 23.5948 69.1191 24.4661 66.6996 24.4661C64.28 24.4661 62.2234 23.6344 60.4893 21.9314C58.7956 20.2681 57.9084 18.2086 57.9084 15.8324C57.9084 13.4561 58.7553 11.4363 60.4893 9.73335C62.1427 8.10957 64.159 7.23828 66.4979 7.23828V9.3373C64.7236 9.37691 63.2315 10.0106 61.9814 11.2383C60.691 12.5056 60.0457 14.0502 60.0457 15.872C60.0457 17.6542 60.691 19.1987 61.9814 20.4661C63.2718 21.7334 64.8446 22.3671 66.6996 22.3671C68.5546 22.3671 70.087 21.7334 71.3774 20.4661C72.6678 19.1987 73.3131 17.6542 73.3131 15.872C73.3131 14.6443 72.9905 13.5353 72.3856 12.5452L74.2809 11.4759C75.1277 12.7829 75.4907 14.2086 75.4907 15.8324Z" fill="white"></path></g></svg> 