<svg xmlns="http://www.w3.org/2000/svg" width="23" height="26">
    <path d="M11.5 10.293c-1.512 0-2.738 1.21-2.738 2.707 0 1.496 1.226 2.707 2.738 2.707s2.738-1.21 2.738-2.707c0-1.496-1.226-2.707-2.738-2.707zm6.402-2.082a2.766 2.766 0 0 0-1.562-1.547c-1.078-.422-3.645-.324-4.84-.324-1.195 0-3.762-.098-4.844.324a2.77 2.77 0 0 0-1.558 1.547c-.426 1.066-.332 3.605-.332 4.789 0 1.184-.094 3.719.332 4.79a2.766 2.766 0 0 0 1.562 1.546c1.078.418 3.645.324 4.844.324 1.195 0 3.758.098 4.84-.324a2.777 2.777 0 0 0 1.562-1.547c.426-1.066.328-3.605.328-4.789 0-1.184.098-3.719-.328-4.79zM11.5 17.164c-2.324 0-4.21-1.863-4.21-4.164 0-2.3 1.886-4.164 4.21-4.164s4.21 1.863 4.21 4.164a4.129 4.129 0 0 1-1.233 2.945 4.229 4.229 0 0 1-2.977 1.22zm4.383-7.531a.978.978 0 0 1-.985-.973.98.98 0 0 1 .985-.973.98.98 0 0 1 .984.973.95.95 0 0 1-.289.688.983.983 0 0 1-.691.289zm4.652-8.008H2.465C1.102 1.625 0 2.715 0 4.063v17.875c0 1.347 1.102 2.437 2.465 2.437h18.07c1.363 0 2.465-1.09 2.465-2.438V4.063c0-1.347-1.102-2.437-2.465-2.437zm-.879 14.727c-.066 1.3-.367 2.453-1.328 3.402-.96.95-2.125 1.25-3.437 1.312-1.356.075-5.422.075-6.778 0-1.316-.066-2.476-.363-3.441-1.312-.961-.95-1.262-2.102-1.324-3.402-.078-1.34-.078-5.364 0-6.704.066-1.3.363-2.453 1.324-3.402C5.637 5.296 6.8 5 8.113 4.937c1.356-.078 5.422-.078 6.778 0 1.316.067 2.48.364 3.437 1.313.961.95 1.266 2.102 1.328 3.406.078 1.336.078 5.352 0 6.696zm0 0" style="stroke:none;fill-rule:nonzero;fill:#FF8D00;fill-opacity:1"/>
</svg>
