<svg xmlns="http://www.w3.org/2000/svg" width="23" height="26">
    <path d="M21.355 1.625H1.637A1.64 1.64 0 0 0 0 3.265v19.47c0 .906.734 1.64 1.637 1.64h19.718c.907 0 1.645-.734 1.645-1.64V3.264c0-.906-.738-1.64-1.645-1.64zm-14.402 19.5h-3.41V10.27h3.414v10.855zM5.246 8.785A1.967 1.967 0 0 1 3.27 6.828c0-1.074.882-1.953 1.976-1.953 1.09 0 1.977.879 1.977 1.953a1.965 1.965 0 0 1-1.977 1.957zm14.484 12.34h-3.41v-5.281c0-1.258-.023-2.88-1.77-2.88-1.777 0-2.05 1.372-2.05 2.79v5.371H9.094V10.27h3.27v1.48h.046c.457-.852 1.57-1.75 3.227-1.75 3.453 0 4.093 2.25 4.093 5.172zm0 0" style="stroke:none;fill-rule:nonzero;fill:#FF8D00;fill-opacity:1"/>
</svg>
