<svg xmlns="http://www.w3.org/2000/svg" width="23" height="26">
    <path d="m9.59 10.262 4.887 2.75-4.887 2.746zM23 4.062v17.875c0 1.344-1.105 2.438-2.465 2.438H2.465C1.105 24.375 0 23.281 0 21.937V4.063C0 2.72 1.105 1.626 2.465 1.626h18.07c1.36 0 2.465 1.094 2.465 2.438zm-2.156 8.954s0-3.028-.39-4.48A2.335 2.335 0 0 0 18.8 6.89C17.348 6.5 11.5 6.5 11.5 6.5s-5.848 0-7.3.39a2.335 2.335 0 0 0-1.653 1.645c-.39 1.45-.39 4.48-.39 4.48s0 3.028.39 4.477c.215.805.848 1.41 1.652 1.621 1.453.387 7.301.387 7.301.387s5.848 0 7.3-.39c.805-.215 1.438-.817 1.653-1.622.39-1.445.39-4.472.39-4.472zm0 0" style="stroke:none;fill-rule:nonzero;fill:#FF8D00;fill-opacity:1"/>
</svg>
